REM DIRINDEX 1\2,1\3,1\4,1\5,1\6
REM DIRNAME folder01,folder02,folder03,folder04,folder05,folder06
TITLE ""
FILE "Disc5Track86.mp3" MP3
  TRACK 01 AUDIO
    TITLE "3:cjc030_10022"
    INDEX 01 00:00:00
  TRACK 02 AUDIO
    TITLE "0:"
    INDEX 01 00:01:01
  TRACK 03 AUDIO
    TITLE "4:cjc030_10023"
    INDEX 01 00:01:09
  TRACK 04 AUDIO
    TITLE "0:"
    INDEX 01 00:02:04
  TRACK 05 AUDIO
    TITLE "5:cjc030_10024"
    INDEX 01 00:02:14
  TRACK 06 AUDIO
    TITLE "0:"
    INDEX 01 00:03:17
  TRACK 07 AUDIO
    TITLE "3:cjc030_10025"
    INDEX 01 00:03:72
  TRACK 08 AUDIO
    TITLE "0:"
    INDEX 01 00:04:74
  TRACK 09 AUDIO
    TITLE "4:cjc030_10026"
    INDEX 01 00:05:05
  TRACK 10 AUDIO
    TITLE "0:"
    INDEX 01 00:06:00
  TRACK 11 AUDIO
    TITLE "5:cjc030_10027"
    INDEX 01 00:06:10
  TRACK 12 AUDIO
    TITLE "0:"
    INDEX 01 00:07:09
  TRACK 13 AUDIO
    TITLE "3:cjc030_10028"
    INDEX 01 00:07:62
  TRACK 14 AUDIO
    TITLE "0:"
    INDEX 01 00:08:64
  TRACK 15 AUDIO
    TITLE "4:cjc030_10029"
    INDEX 01 00:08:73
  TRACK 16 AUDIO
    TITLE "0:"
    INDEX 01 00:09:57
  TRACK 17 AUDIO
    TITLE "5:cjc030_10030"
    INDEX 01 00:09:67
  TRACK 18 AUDIO
    TITLE "0:"
    INDEX 01 00:10:66
  TRACK 19 AUDIO
    TITLE "6:cjc030_10031"
    INDEX 01 00:11:05
  TRACK 20 AUDIO
    TITLE "0:"
    INDEX 01 00:12:46
  TRACK 21 AUDIO
    TITLE "3:cjc030_10032"
    INDEX 01 00:13:22
  TRACK 22 AUDIO
    TITLE "0:"
    INDEX 01 00:14:29
  TRACK 23 AUDIO
    TITLE "4:cjc030_10033"
    INDEX 01 00:14:37
  TRACK 24 AUDIO
    TITLE "0:"
    INDEX 01 00:15:62
  TRACK 25 AUDIO
    TITLE "5:cjc030_10034"
    INDEX 01 00:15:68
  TRACK 26 AUDIO
    TITLE "0:"
    INDEX 01 00:17:00
  TRACK 27 AUDIO
    TITLE "3:cjc030_10035"
    INDEX 01 00:17:51
  TRACK 28 AUDIO
    TITLE "0:"
    INDEX 01 00:18:56
  TRACK 29 AUDIO
    TITLE "4:cjc030_10036"
    INDEX 01 00:18:64
  TRACK 30 AUDIO
    TITLE "0:"
    INDEX 01 00:19:42
  TRACK 31 AUDIO
    TITLE "5:cjc030_10037"
    INDEX 01 00:19:52
  TRACK 32 AUDIO
    TITLE "0:"
    INDEX 01 00:20:57
  TRACK 33 AUDIO
    TITLE "3:cjc030_10038"
    INDEX 01 00:21:31
  TRACK 34 AUDIO
    TITLE "0:"
    INDEX 01 00:22:32
  TRACK 35 AUDIO
    TITLE "4:cjc030_10039"
    INDEX 01 00:22:44
  TRACK 36 AUDIO
    TITLE "0:"
    INDEX 01 00:23:40
  TRACK 37 AUDIO
    TITLE "5:cjc030_10040"
    INDEX 01 00:23:51
  TRACK 38 AUDIO
    TITLE "0:"
    INDEX 01 00:24:53
  TRACK 39 AUDIO
    TITLE "3:cjc030_10041"
    INDEX 01 00:25:31
  TRACK 40 AUDIO
    TITLE "0:"
    INDEX 01 00:26:40
  TRACK 41 AUDIO
    TITLE "4:cjc030_10042"
    INDEX 01 00:26:46
  TRACK 42 AUDIO
    TITLE "0:"
    INDEX 01 00:27:47
  TRACK 43 AUDIO
    TITLE "5:cjc030_10043"
    INDEX 01 00:27:55
  TRACK 44 AUDIO
    TITLE "0:"
    INDEX 01 00:28:64
  TRACK 45 AUDIO
    TITLE "3:cjc030_10044"
    INDEX 01 00:29:36
  TRACK 46 AUDIO
    TITLE "0:"
    INDEX 01 00:30:36
  TRACK 47 AUDIO
    TITLE "4:cjc030_10045"
    INDEX 01 00:30:42
  TRACK 48 AUDIO
    TITLE "0:"
    INDEX 01 00:31:29
  TRACK 49 AUDIO
    TITLE "5:cjc030_10046"
    INDEX 01 00:31:39
  TRACK 50 AUDIO
    TITLE "0:"
    INDEX 01 00:32:37
  TRACK 51 AUDIO
    TITLE "6:cjc030_10047"
    INDEX 01 00:32:50
  TRACK 52 AUDIO
    TITLE "0:"
    INDEX 01 00:34:73
  TRACK 53 AUDIO
    TITLE "3:cjc030_10048"
    INDEX 01 00:35:49
  TRACK 54 AUDIO
    TITLE "0:"
    INDEX 01 00:36:48
  TRACK 55 AUDIO
    TITLE "4:cjc030_10049"
    INDEX 01 00:36:56
  TRACK 56 AUDIO
    TITLE "0:"
    INDEX 01 00:37:65
  TRACK 57 AUDIO
    TITLE "5:cjc030_10050"
    INDEX 01 00:38:00
  TRACK 58 AUDIO
    TITLE "0:"
    INDEX 01 00:38:71
  TRACK 59 AUDIO
    TITLE "6:cjc030_10051"
    INDEX 01 00:39:11
  TRACK 60 AUDIO
    TITLE "0:"
    INDEX 01 00:41:26
  TRACK 61 AUDIO
    TITLE "3:cjc030_10052"
    INDEX 01 00:42:02
  TRACK 62 AUDIO
    TITLE "0:"
    INDEX 01 00:42:72
  TRACK 63 AUDIO
    TITLE "4:cjc030_10053"
    INDEX 01 00:43:07
  TRACK 64 AUDIO
    TITLE "0:"
    INDEX 01 00:43:74
  TRACK 65 AUDIO
    TITLE "5:cjc030_10054"
    INDEX 01 00:44:09
  TRACK 66 AUDIO
    TITLE "0:"
    INDEX 01 00:45:06
  TRACK 67 AUDIO
    TITLE "3:cjc030_10055"
    INDEX 01 00:45:59
  TRACK 68 AUDIO
    TITLE "0:"
    INDEX 01 00:46:60
  TRACK 69 AUDIO
    TITLE "4:cjc030_10056"
    INDEX 01 00:46:66
  TRACK 70 AUDIO
    TITLE "0:"
    INDEX 01 00:47:62
  TRACK 71 AUDIO
    TITLE "5:cjc030_10057"
    INDEX 01 00:47:70
  TRACK 72 AUDIO
    TITLE "0:"
    INDEX 01 00:48:69
  TRACK 73 AUDIO
    TITLE "6:cjc030_10058"
    INDEX 01 00:49:10
  TRACK 74 AUDIO
    TITLE "0:"
    INDEX 01 00:50:68
  TRACK 75 AUDIO
    TITLE "3:cjc030_10059"
    INDEX 01 00:51:42
  TRACK 76 AUDIO
    TITLE "0:"
    INDEX 01 00:52:39
  TRACK 77 AUDIO
    TITLE "4:cjc030_10060"
    INDEX 01 00:52:47
  TRACK 78 AUDIO
    TITLE "0:"
    INDEX 01 00:54:50
  TRACK 79 AUDIO
    TITLE "5:cjc030_10061"
    INDEX 01 00:54:62
  TRACK 80 AUDIO
    TITLE "0:"
    INDEX 01 00:55:55
  TRACK 81 AUDIO
    TITLE "6:cjc030_10062"
    INDEX 01 00:55:71
  TRACK 82 AUDIO
    TITLE "0:"
    INDEX 01 00:57:52
  TRACK 83 AUDIO
    TITLE "3:cjc030_10063"
    INDEX 01 00:58:26
  TRACK 84 AUDIO
    TITLE "0:"
    INDEX 01 00:59:53
  TRACK 85 AUDIO
    TITLE "4:cjc030_10064"
    INDEX 01 00:59:63
  TRACK 86 AUDIO
    TITLE "0:"
    INDEX 01 01:01:72
  TRACK 87 AUDIO
    TITLE "5:cjc030_10065"
    INDEX 01 01:02:08
  TRACK 88 AUDIO
    TITLE "0:"
    INDEX 01 01:03:33
  TRACK 89 AUDIO
    TITLE "6:cjc030_10066"
    INDEX 01 01:03:47
  TRACK 90 AUDIO
    TITLE "0:"
    INDEX 01 01:05:38
  TRACK 91 AUDIO
    TITLE "3:cjc030_10067"
    INDEX 01 01:06:12
  TRACK 92 AUDIO
    TITLE "0:"
    INDEX 01 01:07:15
  TRACK 93 AUDIO
    TITLE "4:cjc030_10068"
    INDEX 01 01:07:25
  TRACK 94 AUDIO
    TITLE "0:"
    INDEX 01 01:08:62
  TRACK 95 AUDIO
    TITLE "5:cjc030_10069"
    INDEX 01 01:08:72
  TRACK 96 AUDIO
    TITLE "0:"
    INDEX 01 01:09:73
  TRACK 97 AUDIO
    TITLE "3:cjc030_10070"
    INDEX 01 01:10:51
  TRACK 98 AUDIO
    TITLE "0:"
    INDEX 01 01:11:49
  TRACK 99 AUDIO
    TITLE "4:cjc030_10071"
    INDEX 01 01:11:58
  TRACK 100 AUDIO
    TITLE "0:"
    INDEX 01 01:13:32
  TRACK 101 AUDIO
    TITLE "5:cjc030_10072"
    INDEX 01 01:13:40
  TRACK 102 AUDIO
    TITLE "0:"
    INDEX 01 01:14:37
